<?xml version="1.0" encoding="utf-8"?>
<!-- Generator: Adobe Illustrator 16.0.0, SVG Export Plug-In . SVG Version: 6.00 Build 0)  -->
<!DOCTYPE svg PUBLIC "-//W3C//DTD SVG 1.1//EN" "http://www.w3.org/Graphics/SVG/1.1/DTD/svg11.dtd">
<svg version="1.1" id="Layer_1" xmlns="http://www.w3.org/2000/svg" xmlns:xlink="http://www.w3.org/1999/xlink" x="0px" y="0px"
	 width="468px" height="512px" viewBox="0 0 468 512" enable-background="new 0 0 468 512" xml:space="preserve">
<g>
	<g>
		<path d="M317.177,226.703c0-42.998-35.661-77.666-79.021-76.043c-39.265,1.469-71.342,33.305-73.098,72.559
			c-0.753,16.83,3.978,32.514,12.537,45.439h-0.016l0.216,0.313c0.221,0.328,0.451,0.652,0.676,0.979l52.718,76.291
			c4.843,7.01,15.2,7.01,20.043,0l53.61-77.582h-0.283C312.527,256.629,317.177,242.211,317.177,226.703z M241.079,256.199
			c-17.623,0-31.908-14.285-31.908-31.908c0-17.621,14.285-31.906,31.908-31.906c17.622,0,31.908,14.285,31.908,31.906
			C272.987,241.914,258.701,256.199,241.079,256.199z"/>
	</g>
</g>
</svg>
