<?xml version="1.0" encoding="utf-8"?>
<!-- Generator: Adobe Illustrator 16.0.0, SVG Export Plug-In . SVG Version: 6.00 Build 0)  -->
<!DOCTYPE svg PUBLIC "-//W3C//DTD SVG 1.1//EN" "http://www.w3.org/Graphics/SVG/1.1/DTD/svg11.dtd">
<svg version="1.1" id="Layer_1" xmlns="http://www.w3.org/2000/svg" xmlns:xlink="http://www.w3.org/1999/xlink" x="0px" y="0px"
	 width="468px" height="512px" viewBox="0 0 468 512" enable-background="new 0 0 468 512" xml:space="preserve">
<g>
	<g>
		<path d="M317.522,324.966H156.915c-10.354,0-18.824-8.471-18.824-18.824v-96.124c0-10.354,8.471-18.824,18.824-18.824h160.607
			c10.354,0,18.824,8.471,18.824,18.824v96.124C336.346,316.496,327.875,324.966,317.522,324.966z"/>
	</g>
	<g>
		<path fill="#FFFFFF" d="M236.751,290.822c-1.182,0-2.363-0.443-3.275-1.327l-76.896-74.547c-1.866-1.81-1.913-4.788-0.104-6.654
			c1.81-1.867,4.789-1.912,6.654-0.104l73.67,71.419l74.013-69.625c1.895-1.78,4.873-1.689,6.652,0.203
			c1.781,1.894,1.689,4.871-0.203,6.652l-77.286,72.704C239.07,290.396,237.911,290.822,236.751,290.822z"/>
	</g>
</g>
</svg>
